# xmcd
#
# Track frame offsets:
#	150
#	21010
#	41987
#	60296
#	79529
#	100360
#	127670
#	151907
#	178495
#	194504
#	211934
#	227799
#	252985
#	265847
#	285101
#	304348
#	317529
#	342251
#
# Disc length: 4770 seconds
#
# Revision: 0
# Processed by: cddbd v1.5.2PL0 Copyright (c) Steve Scherf et al.
# Submitted via: audiograbber 1.83.01
#
DISCID=f312a012
DTITLE=Iny Lorentz - Die Fürstin
DYEAR=2016
DGENRE=Hören
TTITLE0=001 Die Fürstin
TTITLE1=002 Die Fürstin
TTITLE2=003 Die Fürstin
TTITLE3=004 Die Fürstin
TTITLE4=005 Die Fürstin
TTITLE5=006 Die Fürstin
TTITLE6=007 Die Fürstin
TTITLE7=008 Die Fürstin
TTITLE8=009 Die Fürstin
TTITLE9=010 Die Fürstin
TTITLE10=011 Die Fürstin
TTITLE11=012 Die Fürstin
TTITLE12=013 Die Fürstin
TTITLE13=014 Die Fürstin
TTITLE14=015 Die Fürstin
TTITLE15=016 Die Fürstin
TTITLE16=017 Die Fürstin
TTITLE17=018 Die Fürstin
EXTD=
EXTT0=
EXTT1=
EXTT2=
EXTT3=
EXTT4=
EXTT5=
EXTT6=
EXTT7=
EXTT8=
EXTT9=
EXTT10=
EXTT11=
EXTT12=
EXTT13=
EXTT14=
EXTT15=
EXTT16=
EXTT17=
PLAYORDER=
